<svg width="24" height="24" viewBox="0 0 24 24" fill="none" xmlns="http://www.w3.org/2000/svg">
<path d="M12.0013 21.0026C11.6913 21.0026 11.4313 20.9426 11.2113 20.7726C8.55131 18.8326 5.78131 16.6926 3.73131 13.7526C3.01131 12.7126 2.04131 11.1026 2.00131 9.06261C1.95131 6.61261 3.34131 4.36261 5.46131 3.44261C7.59131 2.52261 10.1213 3.06261 11.9113 4.82261L11.9913 4.90261C12.0713 4.82261 12.1513 4.74261 12.2313 4.67261C14.2313 2.85261 17.0213 2.49261 19.1513 3.77261C21.3613 5.10261 22.4413 7.84261 21.8013 10.4526C21.2313 12.7426 19.8313 14.4826 18.5313 15.8926C16.7513 17.8126 14.6713 19.4126 12.8713 20.7226C12.6513 20.8826 12.3013 21.0126 11.9413 21.0126L12.0013 21.0026Z" fill="white"/>
</svg>
