<svg width="24" height="24" viewBox="0 0 24 24" fill="none" xmlns="http://www.w3.org/2000/svg">
<path d="M14.8 14.1322C15.0667 14.2957 15.0667 14.7043 14.8 14.8678L10.6 17.4425C10.3333 17.6059 10 17.4016 10 17.0747L10 11.9253C10 11.5984 10.3333 11.3941 10.6 11.5575L14.8 14.1322Z" fill="white"/>
<path fill-rule="evenodd" clip-rule="evenodd" d="M8 2C4.68629 2 2 4.68629 2 8V16C2 19.3137 4.68629 22 8 22H16C19.3137 22 22 19.3137 22 16V8C22 4.68629 19.3137 2 16 2H8ZM16 4H14.7663L16.5663 7H19.874C19.4299 5.27477 17.8638 4 16 4ZM20 9H4V16C4 18.2091 5.79086 20 8 20H16C18.2091 20 20 18.2091 20 16V9ZM4.12602 7H8.23381L6.58769 4.25647C5.3805 4.71213 4.45161 5.73497 4.12602 7ZM10.5662 7H14.2339L12.4339 4H8.76619L10.5662 7Z" fill="white"/>
</svg>
