<svg width="24" height="24" viewBox="0 0 24 24" fill="none" xmlns="http://www.w3.org/2000/svg">
<path d="M22 7H17.546L14.3317 2H17C19.7614 2 22 4.23858 22 7Z" fill="white"/>
<path d="M7.33167 2H11.954L15.1683 7H10.546L7.33167 2Z" fill="white"/>
<path d="M5.17491 2.34356C3.31612 3.07267 2 4.88264 2 7H8.16833L5.17491 2.34356Z" fill="white"/>
<path fill-rule="evenodd" clip-rule="evenodd" d="M2 9H22V16C22 19.3137 19.3137 22 16 22H8C4.68629 22 2 19.3137 2 16V9ZM14.8 14.1322C15.0667 14.2957 15.0667 14.7043 14.8 14.8678L10.6 17.4425C10.3333 17.6059 10 17.4016 10 17.0747L10 11.9253C10 11.5984 10.3333 11.3941 10.6 11.5575L14.8 14.1322Z" fill="white"/>
</svg>
