<svg width="24" height="24" viewBox="0 0 24 24" fill="none" xmlns="http://www.w3.org/2000/svg">
<path fill-rule="evenodd" clip-rule="evenodd" d="M15.356 17.4773C13.9794 18.4371 12.3054 19 10.5 19C5.80558 19 2 15.1944 2 10.5C2 5.80558 5.80558 2 10.5 2C15.1944 2 19 5.80558 19 10.5C19 12.3054 18.4371 13.9794 17.4773 15.356L22.0104 19.8891C22.5962 20.4749 22.5962 21.4246 22.0104 22.0104C21.4246 22.5962 20.4749 22.5962 19.8891 22.0104L15.356 17.4773ZM16 10.5C16 13.5376 13.5376 16 10.5 16C7.46243 16 5 13.5376 5 10.5C5 7.46243 7.46243 5 10.5 5C13.5376 5 16 7.46243 16 10.5Z" fill="white"/>
</svg>
